# xmcd
#
# Track frame offsets: 
#        150
#        25835
#        51097
#        72075
#        98462
#        126595
#        148117
#        169737
#        191130
#        214972
#        235225
#        253810
#
# Disc length: 3674 seconds
#
# Revision: 1
# Processed by: cddbd v1.5.2PL0 Copyright (c) Steve Scherf et al.
# Submitted via: ExactAudioCopyFreeDBPlugin 1.0
#
DISCID=b30e580c
DTITLE=凤凰于飞 - 凤凰于飞
DYEAR=1996
DGENRE=民乐
TTITLE0=凤凰于飞
TTITLE1=五月的风
TTITLE2=街头月
TTITLE3=渔家女
TTITLE4=高岗上
TTITLE5=梦
TTITLE6=夜上海
TTITLE7=月下佳人
TTITLE8=月下祈祷
TTITLE9=天涯歌女
TTITLE10=告诉我
TTITLE11=忆良人
EXTD=
EXTT0=
EXTT1=
EXTT2=
EXTT3=
EXTT4=
EXTT5=
EXTT6=
EXTT7=
EXTT8=
EXTT9=
EXTT10=
EXTT11=
PLAYORDER=
